<svg 
 xmlns="http://www.w3.org/2000/svg"
 xmlns:xlink="http://www.w3.org/1999/xlink"
 width="16px" height="15px">
<path fill-rule="evenodd"  fill="rgb(153, 153, 153)"
 d="M13.001,14.085 L3.002,14.085 C1.345,14.085 0.001,12.742 0.001,11.087 L0.001,6.088 C0.001,4.432 1.345,3.090 3.002,3.090 L3.762,3.090 C3.252,3.726 2.840,4.442 2.541,5.215 C2.225,5.383 2.002,5.706 2.002,6.088 L2.002,11.087 C2.002,11.639 2.449,12.087 3.002,12.087 L13.001,12.087 C13.554,12.087 14.001,11.639 14.001,11.087 L14.001,8.586 L16.001,7.088 L16.001,11.087 C16.001,12.742 14.659,14.085 13.001,14.085 ZM11.601,7.887 C11.425,8.019 11.213,8.088 11.001,8.088 C10.849,8.088 10.696,8.052 10.554,7.982 C10.215,7.812 10.001,7.467 10.001,7.088 L10.001,6.088 C7.390,6.088 5.175,7.759 4.350,10.087 C4.128,9.461 4.001,8.789 4.001,8.088 C4.001,4.777 6.688,2.091 10.001,2.091 L10.001,1.091 C10.001,0.713 10.215,0.366 10.554,0.197 C10.696,0.126 10.849,0.091 11.001,0.091 C11.213,0.091 11.425,0.159 11.601,0.292 L15.601,3.290 C15.853,3.479 16.001,3.775 16.001,4.090 C16.001,4.405 15.853,4.701 15.601,4.889 L11.601,7.887 Z"/>
</svg>